<?xml version="1.0" encoding="UTF-8"?><svg id="Layer_1" xmlns="http://www.w3.org/2000/svg" viewBox="0 0 212.97 195.96"><defs><style>.cls-1{fill:#231f20;}</style></defs><path class="cls-1" d="m149.85,52.44c0,28.96-23.48,52.44-52.44,52.44s-52.44-23.48-52.44-52.44S68.45,0,97.42,0s52.44,23.48,52.44,52.44Zm27,21.69v70.43c-2.93-1.19-10.73-2.78-14.09-2.78-13.89,0-25.14,11.26-25.14,25.14s11.26,25.14,25.14,25.14,25.14-11.26,25.14-25.14c0-.24-.01-.47-.02-.7h.02v-72.57h25.07l-36.12-19.52Zm-58.58,91.76c0-14.76,6.17-27.9,15.79-36.42-11.43-2.16-24-3.35-37.18-3.35C43.89,126.12.94,165.35.94,184.34l-.94,9.37,128.24,2.25c-7-8.32-9.97-17.76-9.97-30.06Z"/></svg>