<?xml version="1.0" encoding="utf-8"?>
<!-- Generator: Adobe Illustrator 27.6.1, SVG Export Plug-In . SVG Version: 6.00 Build 0)  -->
<svg version="1.1" id="Layer_1" xmlns="http://www.w3.org/2000/svg" xmlns:xlink="http://www.w3.org/1999/xlink" x="0px" y="0px"
	 viewBox="0 0 855 403" style="enable-background:new 0 0 855 403;" xml:space="preserve">
<style type="text/css">
	.st0{fill:#EF8D22;}
	.st1{fill:#EF8F23;}
	.st2{fill:#FEF7F0;}
	.st3{fill:#F09429;}
	.st4{fill:#EF9227;}
</style>
<g>
	<path class="st0" d="M649.1,152.1c10.6-11.4,41.8-8.5,12.6,5c-17,6-17.7,18.8-15,24.6c6.4,13.5,21.1,28.7,29.5,34.9
		c11.5,8.4,18.9,23.1,42.6,12.3c-12.3,60.1-44.6-0.9-69.2-25c-41.8-41.1,14.8,98.7-26.7,43c-3-4-1.7-45.6-3.3-45.4
		c-4.9,0.7-4.7,51.5-17.2,46.7c-10.5-22.3-14.9-33.1-19.5-33.3c-8-0.4-14.8,25.3-25.2,29c-9.3,3.2-14.8-4.8-35.5,1.7
		c-23.7-13.9,3.1-38.2,9.9-55.3c-58.2,16.4-20.3-19.6,13.6-13.6c19.1,4.6-16.3,37.5-17.1,49.1c-5,8.5,35.8,7.5,33.7,0.6
		c10.5-11.7,26.8-70.8,32.5-23.3c7.8,63.7,20.8-3.9,22.4-40.8c1.1-27-1.3-54.5-2.6-63.7c-1.6-8.5-10.4-28,4.1-28.1
		c13.6,16.9,16.6,100.1,16.6,100.1S644.2,155.3,649.1,152.1z"/>
	<path class="st0" d="M785,203.6c17.7,82.4,17.4,178.5-10.7,32C759.2,62.7,778.6-59.7,785,203.6z"/>
	<path class="st0" d="M62.3,245.2C52,213.8,60.7-21.4,78.4,87.3c-9,62.4-4.3,231.6-7.6,235.2C66.1,327.7,63,288.8,62.3,245.2z"/>
	<path class="st1" d="M136.6,164.7c-8.3,28.7-16.3-9-9.5-21.8C134.8,145.3,135,156,136.6,164.7z"/>
	<path class="st1" d="M585.1,142c-1.2,5.8,7.3,7.8,6.4,13.4C571.7,175.4,566.4,114.2,585.1,142z"/>
	<path class="st0" d="M281.2,361.9c0.2-0.2,0.4-0.5,0.6-0.7C281.7,361.9,281.8,362.8,281.2,361.9z"/>
	<path class="st2" d="M288.2,366C288.5,366.4,288.4,366.2,288.2,366C289.1,365.9,289.4,366,288.2,366z"/>
	<path class="st3" d="M277.7,356.9c0.2,0.3,0.4,0.6,0.5,1C278,357.6,277.9,357.2,277.7,356.9z"/>
	<path class="st4" d="M291.7,365.3c0.4-0.1,0.7-0.3,1.1-0.4C292.4,365.1,292.1,365.2,291.7,365.3z"/>
	<path class="st3" d="M278.2,357.9c0.1,0.2,0.3,0.5,0.4,0.7C278.5,358.4,278.4,358.1,278.2,357.9z"/>
	<path class="st3" d="M279.2,359.4c0.2,0.3,0.3,0.5,0.5,0.8C279.5,359.9,279.3,359.7,279.2,359.4z"/>
	<path class="st3" d="M279.8,360.4c0.1,0.2,0.3,0.3,0.4,0.5C280.1,360.7,279.9,360.6,279.8,360.4z"/>
	<path class="st0" d="M488,68.2c16.1-90.1-52.2,23.4-80,6.5c1.5,185.1,4.9,42.8-67.9,150.9c-6.4-20.9-9.3-31-14.2-31.7
		c-9.3-1.3-20.7,40.2-26.5,39.7c-9.7-2-6-31.7-14.2-38.2c-17.4-0.4-11.6,50.6-22.3,48.6c-5.2,0.4-5.3-91.1-20.9-80.9
		c-10.4,6.8-13.7,28.6-19.8,48.9c-5.3-14.4-11.6-36.9-17.4-36.8c-14.4,0.3-18,42.1-19.6,60.5c-0.1,0-0.4,8.8-2.3,9.3
		c-1.9,0.5-7.2-3.8-8.1-7.7c-0.8-3.6-3.5-5.9-6.2-7.2c-4.9-2.3-1.5,9.4-1.5,9.4c0,1.4,1.8,4,6.2,9.2c4.3,5.2,9.2,7.2,14.1,7.1
		c4.6-0.1,4.4-8.2,4.8-9.8c4.9-29.7,8-54.7,11.7-55c7.6-0.5,13.4,58.3,20.5,58.3c3.8,0,8.1-41.8,18.5-63.7c9.9,9.3-0.5,77.2,23,67.2
		c10.8-4.6,11.3-28.4,15.4-37c2.5-10.5,7,27.4,10.1,31.1c16.2,6.9,20.5-27,30-35.5c23.9,27.2-3.3,84.8,10.9,125.4
		c21.7,67.9,45.5,17.7,36.9-24.8c-8.3-29.5-36.4-65.6-11.8-90.1c13.2-21.7,1.6,17.9,20.6,20c20,8.1,37.5-11.9,46.8-27.1
		c8.3-17.7-13.4-27.2-8.9-43.7c-3.6-73.5-9.4-59.4,50.5-90.9c13.6-17.1,1.6,11.4,2.5,22.5c-6.3,24.1,2.8,74.8-7.9,78.5
		c-32.5,14.5-34.3,47.2-16.2,64.6c9.3,8.9,23.8,5.7,37.4-1.7c11.8-15.9,18.3-42.8,2.6-60.4C480.8,179,469.9,112.6,488,68.2z
		 M358.4,350.1c-17.9-14.3-24.9-80.8-15.4-98.8C350.3,276.8,371.4,330,358.4,350.1z M382.4,201.5c4.7-4.2,5.6-15.1,17.4-8.6
		c16,3.6,11.3,20,3.9,27.5c-5.6,5.7-16.2,12.2-21.3,10.1C378.5,228.9,376.4,212.6,382.4,201.5z M476.7,44.6c1.2-0.7,9.8-7.9,3.7-2.5
		C488.3,36,476.1,47.9,476.7,44.6z M460.2,194.9c31.4-0.7,16.5,53.3-14.3,33.2C441.4,217,449.9,202.5,460.2,194.9z"/>
</g>
</svg>
